<?xml version="1.0" encoding="UTF-8" standalone="no"?>
<!-- Created with Inkscape (http://www.inkscape.org/) -->

<svg
   version="1.1"
   id="svg854"
   xml:space="preserve"
   width="2555.1609"
   height="733.01697"
   viewBox="0 0 2555.1609 733.01697"
   xmlns="http://www.w3.org/2000/svg"
   xmlns:svg="http://www.w3.org/2000/svg"><defs
     id="defs858" /><g
     id="g860"
     transform="matrix(1.3333333,0,0,1.3333333,0,1.5658758e-5)"><g
       id="g862"><path
         d="m 1121.266,548.094 c 0.582,-2.406 4.757,-26.418 4.617,-26.528 -0.16,-0.117 -744.945,-141.808 -754.672,-143.57 -4.149,-0.754 -20.52,-3.269 -36.375,-5.59 C 199.793,352.617 108.762,330.078 53.262,302.688 27.594,290.02 13.109,278.156 4.344,262.617 -4.473,246.988 0.172,231.379 17.883,217.105 53.211,188.633 136.371,163.277 263.637,142.18 c 8.867,-1.469 17.051,-2.864 18.187,-3.094 1.485,-0.305 2.063,-0.121 2.063,0.648 0,0.813 -3.657,1.653 -15.188,3.481 -100.308,15.926 -175.879,35.863 -212.812,56.152 -14.461,7.942 -26.078,18.141 -29.813,26.172 -10.832,23.293 20.016,46.859 88.688,67.742 124.84,37.969 364.39,65.317 650.25,74.231 116.062,3.617 270.187,3.617 386.25,0 325.711,-10.157 587.562,-44.012 693.14,-89.621 23.653,-10.215 40.703,-22.832 45.774,-33.864 10.73,-23.355 -20.039,-46.839 -88.824,-67.789 -16.262,-4.953 -49.004,-13.222 -68.09,-17.203 -8.25,-1.719 -15.422,-3.258 -15.938,-3.414 -1.676,-0.519 -0.988,-1.879 0.75,-1.484 0.926,0.207 8.942,1.929 17.813,3.824 22.558,4.82 52.301,12.351 70.875,17.941 43.75,13.172 73.355,26.485 91.629,41.203 13.671,11.016 19.902,23.676 17.461,35.489 -2.211,10.707 -12.301,24.043 -25.809,34.121 -39.535,29.492 -128.684,56.41 -257.734,77.816 -233.844,38.793 -568.543,54.707 -889.817,42.309 -16.926,-0.656 -31.726,-1.074 -32.894,-0.938 -1.168,0.141 93.941,14.899 211.355,32.797 117.414,17.895 213.609,32.406 213.774,32.242 0.164,-0.16 1.046,-4.679 1.961,-10.039 0.917,-5.359 1.933,-10.047 2.261,-10.41 0.336,-0.375 50.371,19.383 113.867,44.961 62.301,25.094 113.125,45.774 112.95,45.949 -0.305,0.309 -230.364,8.313 -240.207,8.36 -4.5,0.019 -4.684,-0.051 -4.293,-1.668 z M 308.844,311.074 c 0.207,-0.535 19.894,-44.75 43.758,-98.258 l 43.382,-97.285 h 92.825 c 51.054,0 92.828,0.258 92.828,0.571 0,0.312 -6.235,14.91 -13.852,32.437 l -13.851,31.867 -52.817,0.196 -52.816,0.191 -6.645,15.098 c -3.656,8.304 -16.605,37.75 -28.781,65.433 l -22.133,50.332 -41.137,0.196 c -33.445,0.156 -41.066,0.011 -40.761,-0.778 z m 221.551,-0.777 c 0.75,-0.957 38.828,-45.34 84.613,-98.625 l 83.242,-96.891 h 70.418 l -1.918,2.063 c -3.043,3.277 -103.055,119.832 -103.656,120.808 -0.418,0.672 10.351,0.879 45.101,0.879 h 45.649 l 24.918,-78.562 c 13.707,-43.207 24.91,-79.047 24.898,-79.637 -0.015,-0.59 -0.719,-2.516 -1.57,-4.273 -1.899,-3.914 -6.656,-7.239 -13.313,-9.293 -4.55,-1.407 -7.097,-1.485 -48.933,-1.485 h -44.133 l 3.598,-8.062 C 701.289,52.785 707.902,38.098 714,24.578 L 725.094,0 l 80.332,0.203 80.336,0.203 3.89,2.055 c 7.215,3.805 10.184,9.555 10.16,19.695 l -0.015,6.75 -42.488,132.375 c -23.368,72.809 -43.852,136.512 -45.516,141.563 l -3.031,9.187 H 529.027 Z m 307.777,1.172 c 0.019,-0.309 7.574,-16.762 16.785,-36.563 l 16.746,-36 63.652,-0.414 c 62.551,-0.41 63.786,-0.449 71.106,-2.109 11.801,-2.672 18.625,-5.621 22.883,-9.883 6.121,-6.117 9.203,-14.645 9.316,-25.785 0.082,-7.856 -2.105,-12.817 -8.676,-19.656 -7.371,-7.676 -17.32,-13.657 -34.57,-20.786 -30.113,-12.445 -42.707,-29.308 -45.176,-60.492 -0.89,-11.23 1.617,-32.636 5.332,-45.551 2.207,-7.664 8.582,-21.347 12.938,-27.757 6.508,-9.586 18.488,-17.985 31.211,-21.883 13.383,-4.106 12.926,-4.082 93.593,-4.367 73.297,-0.258 74.793,-0.235 74.25,1.164 -0.304,0.785 -6.624,15.476 -14.05,32.64 l -13.5,31.215 -39.375,0.047 c -41.965,0.047 -46.762,0.379 -54.606,3.754 -6.332,2.723 -9.203,7.121 -10.695,16.395 -1.207,7.492 -0.477,10.597 3.551,15.074 5.949,6.617 16.277,11.84 37.375,18.89 23.699,7.922 34.14,15.809 42.043,31.754 5.75,11.606 6.605,16.129 6.66,35.25 0.039,14.321 -0.18,17.614 -1.66,24.922 -7.61,37.543 -33.352,71.012 -67.332,87.543 -13.957,6.789 -29.368,10.891 -46.461,12.367 -10.391,0.899 -171.395,1.117 -171.34,0.231 z m 279.922,-0.399 c 0.207,-0.535 19.894,-44.746 43.758,-98.254 l 43.382,-97.285 h 92.825 c 51.054,0 92.828,0.258 92.828,0.571 0,0.312 -6.235,14.91 -13.852,32.437 l -13.851,31.867 -52.805,0.196 -52.805,0.191 -12.781,28.684 -12.777,28.679 52.328,0.375 52.324,0.375 -31.172,72.75 -93.887,0.192 c -76.48,0.156 -93.816,0.011 -93.515,-0.778 z m 229.703,-4.851 c 1.433,-3.196 21.117,-47.324 43.742,-98.063 l 41.133,-92.25 65.168,-0.375 65.172,-0.375 3.527,-1.738 c 1.941,-0.953 5.316,-3.68 7.5,-6.059 3.356,-3.648 4.875,-6.406 9.797,-17.761 3.203,-7.391 5.82,-14.055 5.812,-14.801 -0.031,-3.567 -2.238,-5.242 -10.449,-7.938 -4.726,-1.55 -5.84,-1.578 -64.687,-1.578 -32.93,0 -59.856,-0.25 -59.828,-0.562 0.027,-0.309 6.539,-14.907 14.476,-32.438 l 14.426,-31.875 91.465,-0.218 c 65.988,-0.157 92.715,0.019 95.961,0.636 9.523,1.801 17.648,7.461 20.613,14.352 1.437,3.34 1.637,4.804 1.285,9.453 -0.398,5.289 -1.515,7.926 -28.726,67.891 -15.571,34.312 -29.391,64.097 -30.707,66.191 -3.543,5.617 -6.825,9.086 -11.774,12.445 -4.504,3.059 -17.848,8.266 -23.648,9.231 l -3.207,0.535 2.925,2.367 c 4.325,3.504 7.352,7.285 9.465,11.828 1.59,3.41 1.875,5.094 1.832,10.789 -0.027,3.715 -0.445,8.004 -0.929,9.532 -0.485,1.527 -10.5,23.882 -22.254,49.675 l -21.375,46.895 -40.688,0.012 c -22.379,0.007 -40.687,-0.184 -40.687,-0.422 0,-0.239 11.699,-26.129 26,-57.539 18.941,-41.602 26.082,-58.028 26.293,-60.504 0.359,-4.223 -1.426,-7.348 -5.895,-10.305 l -3.16,-2.094 -20.684,-0.191 -20.679,-0.192 -57.594,131.258 h -82.227 z m -923.957,-255 c 3.496,-7.735 10.113,-22.414 14.703,-32.625 l 8.344,-18.563 h 92.875 c 51.082,0 92.875,0.199 92.875,0.442 0,0.242 -6.289,14.925 -13.973,32.625 L 604.691,65.281 H 417.48 Z m 809.25,0 c 3.496,-7.735 10.113,-22.414 14.703,-32.625 l 8.344,-18.563 h 92.875 c 51.082,0 92.875,0.199 92.875,0.442 0,0.242 -6.289,14.925 -13.973,32.625 l -13.973,32.183 H 1226.73 Z"
         style="fill:#000000;fill-opacity:1;fill-rule:nonzero;stroke:none"
         id="path864" /></g></g></svg>
